<?xml version="1.0" encoding="utf-8"?>
<!-- Generator: Adobe Illustrator 25.2.1, SVG Export Plug-In . SVG Version: 6.00 Build 0)  -->
<svg version="1.1" id="Layer_1" xmlns="http://www.w3.org/2000/svg" xmlns:xlink="http://www.w3.org/1999/xlink" x="0px" y="0px"
	 viewBox="0 0 20 16" style="enable-background:new 0 0 20 16;" xml:space="preserve">
<style type="text/css">
	.st0{filter:url(#ia1x8xccfa);}
</style>
<filter  id="ia1x8xccfa">
	<feColorMatrix  in="SourceGraphic" values="0 0 0 0 0.117647 0 0 0 0 0.117647 0 0 0 0 0.117647 0 0 0 1.000000 0">
		</feColorMatrix>
</filter>
<g>
	<g>
		<g>
			<g transform="translate(-957 -2034) translate(0 1972) translate(933 24)" class="st0">
				<g>
					<path d="M43.2,40c-0.7,0.3-1.5,0.5-2.3,0.6c0.8-0.5,1.4-1.3,1.7-2.2c-0.8,0.5-1.6,0.8-2.5,1c-0.7-0.8-1.7-1.2-2.9-1.2
						c-2.5,0-4.4,2.4-3.8,4.8c-3.3-0.2-6.2-1.7-8.1-4.1c-1,1.8-0.5,4.1,1.2,5.3c-0.6,0-1.3-0.2-1.8-0.5c0,1.8,1.3,3.5,3.2,3.9
						c-0.6,0.1-1.2,0.2-1.8,0.1c0.5,1.6,2,2.7,3.7,2.7c-1.7,1.3-3.7,1.9-5.8,1.6c1.7,1.1,3.8,1.8,6,1.8c7.3,0,11.4-6.2,11.2-11.7
						C42,41.5,42.7,40.8,43.2,40L43.2,40z"/>
				</g>
			</g>
		</g>
	</g>
</g>
</svg>
